<mxfile host="Electron" modified="2023-05-30T15:31:38.413Z" agent="Mozilla/5.0 (Macintosh; Intel Mac OS X 10_15_7) AppleWebKit/537.36 (KHTML, like Gecko) draw.io/21.2.1 Chrome/112.0.5615.87 Electron/24.1.2 Safari/537.36" etag="PsjgsF8Qv9hSwRiMshg-" version="21.2.1" type="device">
  <diagram name="Page-1" id="H1nZVYqxkzLZFgEqRADx">
    <mxGraphModel dx="-13637" dy="9163" grid="1" gridSize="10" guides="1" tooltips="1" connect="1" arrows="1" fold="1" page="1" pageScale="1" pageWidth="850" pageHeight="1100" math="0" shadow="0">
      <root>
        <mxCell id="0" />
        <mxCell id="1" parent="0" />
        <mxCell id="AsBp8XiL8Dx4Y6rQVwFH-49" value="R, W: 149, H: 144, ORDER: 23, GC: {68, 39, 42, 29, 7, 3, 4, 14, 11, 27, 1, 13, 12, 76, 21, 18, 34, 2, 16, 23, 9, 41, 32} " style="text;html=1;strokeColor=none;fillColor=none;align=center;verticalAlign=middle;whiteSpace=wrap;rounded=0;fontSize=32;" parent="1" vertex="1">
          <mxGeometry x="17050" y="-4480" width="1490" height="30" as="geometry" />
        </mxCell>
        <mxCell id="AsBp8XiL8Dx4Y6rQVwFH-139" value="R, W: 149, H: 120, ORDER: 20, GC: {54, 42, 27, 26, 1, 25, 15, 13, 2, 11, 12, 33, 14, 5, 31, 19, 66, 45, 7, 38} " style="text;html=1;strokeColor=none;fillColor=none;align=center;verticalAlign=middle;whiteSpace=wrap;rounded=0;fontSize=32;" parent="1" vertex="1">
          <mxGeometry x="17010" y="-2900" width="1490" height="30" as="geometry" />
        </mxCell>
        <mxCell id="AsBp8XiL8Dx4Y6rQVwFH-225" value="R, W: 149, H: 144, ORDER: 21, GC: {61, 22, 12, 9, 16, 5, 4, 1, 3, 10, 2, 8, 29, 6, 13, 39, 7, 49, 83, 17, 66} " style="text;html=1;strokeColor=none;fillColor=none;align=center;verticalAlign=middle;whiteSpace=wrap;rounded=0;fontSize=32;" parent="1" vertex="1">
          <mxGeometry x="16985" y="-1540" width="1490" height="30" as="geometry" />
        </mxCell>
        <mxCell id="AsBp8XiL8Dx4Y6rQVwFH-247" value="R, W: 149, H: 144, ORDER: 21, GC: {61, 39, 49, 22, 17, 7, 13, 10, 8, 6, 29, 3, 2, 5, 1, 16, 4, 83, 12, 9, 66} " style="text;html=1;strokeColor=none;fillColor=none;align=center;verticalAlign=middle;whiteSpace=wrap;rounded=0;fontSize=32;" parent="1" vertex="1">
          <mxGeometry x="16990" width="1490" height="30" as="geometry" />
        </mxCell>
        <mxCell id="AsBp8XiL8Dx4Y6rQVwFH-399" value="R, W: 149, H: 102, ORDER: 20, GC: {47, 36, 32, 34, 20, 12, 10, 24, 8, 14, 11, 9, 16, 2, 7, 55, 5, 50, 6, 44} " style="text;html=1;strokeColor=none;fillColor=none;align=center;verticalAlign=middle;whiteSpace=wrap;rounded=0;fontSize=32;" parent="1" vertex="1">
          <mxGeometry x="16980" y="1520" width="1490" height="30" as="geometry" />
        </mxCell>
        <mxCell id="AsBp8XiL8Dx4Y6rQVwFH-441" value="R, W: 149, H: 102, ORDER: 18, GC: {47, 25, 28, 22, 3, 49, 16, 15, 1, 8, 6, 17, 2, 53, 10, 55, 14, 41} " style="text;html=1;strokeColor=none;fillColor=none;align=center;verticalAlign=middle;whiteSpace=wrap;rounded=0;fontSize=32;" parent="1" vertex="1">
          <mxGeometry x="16980" y="2640" width="1490" height="30" as="geometry" />
        </mxCell>
        <mxCell id="AsBp8XiL8Dx4Y6rQVwFH-534" value="R, W: 149, H: 136, ORDER: 16, GC: {53, 23, 16, 21, 7, 9, 30, 36, 4, 17, 13, 2, 34, 32, 83, 66} " style="text;html=1;strokeColor=none;fillColor=none;align=center;verticalAlign=middle;whiteSpace=wrap;rounded=0;fontSize=32;" parent="1" vertex="1">
          <mxGeometry x="16980" y="3770" width="1490" height="30" as="geometry" />
        </mxCell>
        <mxCell id="KC_nsmwJ1KpU8SBtWkq8-1" value="" style="group;flipV=1;" vertex="1" connectable="0" parent="1">
          <mxGeometry x="17050" y="-4430" width="1490" height="1440" as="geometry" />
        </mxCell>
        <mxCell id="761dnnyQ54j-Cl0NHfQN-50" value="68" style="rounded=0;whiteSpace=wrap;html=1;fontSize=32;" parent="KC_nsmwJ1KpU8SBtWkq8-1" vertex="1">
          <mxGeometry y="760" width="680" height="680" as="geometry" />
        </mxCell>
        <mxCell id="761dnnyQ54j-Cl0NHfQN-51" value="39" style="rounded=0;whiteSpace=wrap;html=1;fontSize=32;" parent="KC_nsmwJ1KpU8SBtWkq8-1" vertex="1">
          <mxGeometry x="680" y="1050" width="390" height="390" as="geometry" />
        </mxCell>
        <mxCell id="761dnnyQ54j-Cl0NHfQN-52" value="42" style="rounded=0;whiteSpace=wrap;html=1;fontSize=32;" parent="KC_nsmwJ1KpU8SBtWkq8-1" vertex="1">
          <mxGeometry x="1070" y="1020" width="420" height="420" as="geometry" />
        </mxCell>
        <mxCell id="761dnnyQ54j-Cl0NHfQN-53" value="29" style="rounded=0;whiteSpace=wrap;html=1;fontSize=32;" parent="KC_nsmwJ1KpU8SBtWkq8-1" vertex="1">
          <mxGeometry x="680" y="760" width="290" height="290" as="geometry" />
        </mxCell>
        <mxCell id="761dnnyQ54j-Cl0NHfQN-54" value="7" style="rounded=0;whiteSpace=wrap;html=1;fontSize=32;" parent="KC_nsmwJ1KpU8SBtWkq8-1" vertex="1">
          <mxGeometry x="970" y="980" width="70" height="70" as="geometry" />
        </mxCell>
        <mxCell id="761dnnyQ54j-Cl0NHfQN-55" value="3" style="rounded=0;whiteSpace=wrap;html=1;fontSize=32;" parent="KC_nsmwJ1KpU8SBtWkq8-1" vertex="1">
          <mxGeometry x="1040" y="1020" width="30" height="30" as="geometry" />
        </mxCell>
        <mxCell id="761dnnyQ54j-Cl0NHfQN-56" value="4" style="rounded=0;whiteSpace=wrap;html=1;fontSize=32;" parent="KC_nsmwJ1KpU8SBtWkq8-1" vertex="1">
          <mxGeometry x="1040" y="980" width="40" height="40" as="geometry" />
        </mxCell>
        <mxCell id="761dnnyQ54j-Cl0NHfQN-57" value="14" style="rounded=0;whiteSpace=wrap;html=1;fontSize=32;" parent="KC_nsmwJ1KpU8SBtWkq8-1" vertex="1">
          <mxGeometry x="1080" y="880" width="140" height="140" as="geometry" />
        </mxCell>
        <mxCell id="761dnnyQ54j-Cl0NHfQN-58" value="11" style="rounded=0;whiteSpace=wrap;html=1;fontSize=32;" parent="KC_nsmwJ1KpU8SBtWkq8-1" vertex="1">
          <mxGeometry x="970" y="870" width="110" height="110" as="geometry" />
        </mxCell>
        <mxCell id="761dnnyQ54j-Cl0NHfQN-59" value="27" style="rounded=0;whiteSpace=wrap;html=1;fontSize=32;" parent="KC_nsmwJ1KpU8SBtWkq8-1" vertex="1">
          <mxGeometry x="1220" y="750" width="270" height="270" as="geometry" />
        </mxCell>
        <mxCell id="761dnnyQ54j-Cl0NHfQN-60" value="1" style="rounded=0;whiteSpace=wrap;html=1;fontSize=32;" parent="KC_nsmwJ1KpU8SBtWkq8-1" vertex="1">
          <mxGeometry x="1080" y="870" width="10" height="10" as="geometry" />
        </mxCell>
        <mxCell id="761dnnyQ54j-Cl0NHfQN-61" value="13" style="rounded=0;whiteSpace=wrap;html=1;fontSize=32;" parent="KC_nsmwJ1KpU8SBtWkq8-1" vertex="1">
          <mxGeometry x="1090" y="750" width="130" height="130" as="geometry" />
        </mxCell>
        <mxCell id="761dnnyQ54j-Cl0NHfQN-62" value="12" style="rounded=0;whiteSpace=wrap;html=1;fontSize=32;" parent="KC_nsmwJ1KpU8SBtWkq8-1" vertex="1">
          <mxGeometry x="970" y="750" width="120" height="120" as="geometry" />
        </mxCell>
        <mxCell id="761dnnyQ54j-Cl0NHfQN-63" value="76" style="rounded=0;whiteSpace=wrap;html=1;fontSize=32;" parent="KC_nsmwJ1KpU8SBtWkq8-1" vertex="1">
          <mxGeometry width="760" height="760" as="geometry" />
        </mxCell>
        <mxCell id="761dnnyQ54j-Cl0NHfQN-64" value="21" style="rounded=0;whiteSpace=wrap;html=1;fontSize=32;" parent="KC_nsmwJ1KpU8SBtWkq8-1" vertex="1">
          <mxGeometry x="760" y="550" width="210" height="210" as="geometry" />
        </mxCell>
        <mxCell id="761dnnyQ54j-Cl0NHfQN-65" value="18" style="rounded=0;whiteSpace=wrap;html=1;fontSize=32;" parent="KC_nsmwJ1KpU8SBtWkq8-1" vertex="1">
          <mxGeometry x="970" y="570" width="180" height="180" as="geometry" />
        </mxCell>
        <mxCell id="761dnnyQ54j-Cl0NHfQN-66" value="34" style="rounded=0;whiteSpace=wrap;html=1;fontSize=32;" parent="KC_nsmwJ1KpU8SBtWkq8-1" vertex="1">
          <mxGeometry x="1150" y="410" width="340" height="340" as="geometry" />
        </mxCell>
        <mxCell id="761dnnyQ54j-Cl0NHfQN-67" value="2" style="rounded=0;whiteSpace=wrap;html=1;fontSize=32;" parent="KC_nsmwJ1KpU8SBtWkq8-1" vertex="1">
          <mxGeometry x="970" y="550" width="20" height="20" as="geometry" />
        </mxCell>
        <mxCell id="761dnnyQ54j-Cl0NHfQN-68" value="16" style="rounded=0;whiteSpace=wrap;html=1;fontSize=32;" parent="KC_nsmwJ1KpU8SBtWkq8-1" vertex="1">
          <mxGeometry x="990" y="410" width="160" height="160" as="geometry" />
        </mxCell>
        <mxCell id="761dnnyQ54j-Cl0NHfQN-69" value="23" style="rounded=0;whiteSpace=wrap;html=1;fontSize=32;" parent="KC_nsmwJ1KpU8SBtWkq8-1" vertex="1">
          <mxGeometry x="760" y="320" width="230" height="230" as="geometry" />
        </mxCell>
        <mxCell id="761dnnyQ54j-Cl0NHfQN-70" value="9" style="rounded=0;whiteSpace=wrap;html=1;fontSize=32;" parent="KC_nsmwJ1KpU8SBtWkq8-1" vertex="1">
          <mxGeometry x="990" y="320" width="90" height="90" as="geometry" />
        </mxCell>
        <mxCell id="761dnnyQ54j-Cl0NHfQN-71" value="41" style="rounded=0;whiteSpace=wrap;html=1;fontSize=32;" parent="KC_nsmwJ1KpU8SBtWkq8-1" vertex="1">
          <mxGeometry x="1080" width="410" height="410" as="geometry" />
        </mxCell>
        <mxCell id="761dnnyQ54j-Cl0NHfQN-72" value="32" style="rounded=0;whiteSpace=wrap;html=1;fontSize=32;" parent="KC_nsmwJ1KpU8SBtWkq8-1" vertex="1">
          <mxGeometry x="760" width="320" height="320" as="geometry" />
        </mxCell>
        <mxCell id="KC_nsmwJ1KpU8SBtWkq8-2" value="" style="group;flipV=1;" vertex="1" connectable="0" parent="1">
          <mxGeometry x="17010" y="-2850" width="1490" height="1200" as="geometry" />
        </mxCell>
        <mxCell id="761dnnyQ54j-Cl0NHfQN-140" value="54" style="rounded=0;whiteSpace=wrap;html=1;fontSize=32;" parent="KC_nsmwJ1KpU8SBtWkq8-2" vertex="1">
          <mxGeometry y="660" width="540" height="540" as="geometry" />
        </mxCell>
        <mxCell id="761dnnyQ54j-Cl0NHfQN-141" value="42" style="rounded=0;whiteSpace=wrap;html=1;fontSize=32;" parent="KC_nsmwJ1KpU8SBtWkq8-2" vertex="1">
          <mxGeometry x="540" y="780" width="420" height="420" as="geometry" />
        </mxCell>
        <mxCell id="761dnnyQ54j-Cl0NHfQN-142" value="27" style="rounded=0;whiteSpace=wrap;html=1;fontSize=32;" parent="KC_nsmwJ1KpU8SBtWkq8-2" vertex="1">
          <mxGeometry x="960" y="930" width="270" height="270" as="geometry" />
        </mxCell>
        <mxCell id="761dnnyQ54j-Cl0NHfQN-143" value="26" style="rounded=0;whiteSpace=wrap;html=1;fontSize=32;" parent="KC_nsmwJ1KpU8SBtWkq8-2" vertex="1">
          <mxGeometry x="1230" y="940" width="260" height="260" as="geometry" />
        </mxCell>
        <mxCell id="761dnnyQ54j-Cl0NHfQN-144" value="1" style="rounded=0;whiteSpace=wrap;html=1;fontSize=32;" parent="KC_nsmwJ1KpU8SBtWkq8-2" vertex="1">
          <mxGeometry x="1230" y="930" width="10" height="10" as="geometry" />
        </mxCell>
        <mxCell id="761dnnyQ54j-Cl0NHfQN-145" value="25" style="rounded=0;whiteSpace=wrap;html=1;fontSize=32;" parent="KC_nsmwJ1KpU8SBtWkq8-2" vertex="1">
          <mxGeometry x="1240" y="690" width="250" height="250" as="geometry" />
        </mxCell>
        <mxCell id="761dnnyQ54j-Cl0NHfQN-146" value="15" style="rounded=0;whiteSpace=wrap;html=1;fontSize=32;" parent="KC_nsmwJ1KpU8SBtWkq8-2" vertex="1">
          <mxGeometry x="960" y="780" width="150" height="150" as="geometry" />
        </mxCell>
        <mxCell id="761dnnyQ54j-Cl0NHfQN-147" value="13" style="rounded=0;whiteSpace=wrap;html=1;fontSize=32;" parent="KC_nsmwJ1KpU8SBtWkq8-2" vertex="1">
          <mxGeometry x="1110" y="800" width="130" height="130" as="geometry" />
        </mxCell>
        <mxCell id="761dnnyQ54j-Cl0NHfQN-148" value="2" style="rounded=0;whiteSpace=wrap;html=1;fontSize=32;" parent="KC_nsmwJ1KpU8SBtWkq8-2" vertex="1">
          <mxGeometry x="1110" y="780" width="20" height="20" as="geometry" />
        </mxCell>
        <mxCell id="761dnnyQ54j-Cl0NHfQN-149" value="11" style="rounded=0;whiteSpace=wrap;html=1;fontSize=32;" parent="KC_nsmwJ1KpU8SBtWkq8-2" vertex="1">
          <mxGeometry x="1130" y="690" width="110" height="110" as="geometry" />
        </mxCell>
        <mxCell id="761dnnyQ54j-Cl0NHfQN-150" value="12" style="rounded=0;whiteSpace=wrap;html=1;fontSize=32;" parent="KC_nsmwJ1KpU8SBtWkq8-2" vertex="1">
          <mxGeometry x="540" y="660" width="120" height="120" as="geometry" />
        </mxCell>
        <mxCell id="761dnnyQ54j-Cl0NHfQN-151" value="33" style="rounded=0;whiteSpace=wrap;html=1;fontSize=32;" parent="KC_nsmwJ1KpU8SBtWkq8-2" vertex="1">
          <mxGeometry x="660" y="450" width="330" height="330" as="geometry" />
        </mxCell>
        <mxCell id="761dnnyQ54j-Cl0NHfQN-152" value="14" style="rounded=0;whiteSpace=wrap;html=1;fontSize=32;" parent="KC_nsmwJ1KpU8SBtWkq8-2" vertex="1">
          <mxGeometry x="990" y="640" width="140" height="140" as="geometry" />
        </mxCell>
        <mxCell id="761dnnyQ54j-Cl0NHfQN-153" value="5" style="rounded=0;whiteSpace=wrap;html=1;fontSize=32;" parent="KC_nsmwJ1KpU8SBtWkq8-2" vertex="1">
          <mxGeometry x="1130" y="640" width="50" height="50" as="geometry" />
        </mxCell>
        <mxCell id="761dnnyQ54j-Cl0NHfQN-154" value="31" style="rounded=0;whiteSpace=wrap;html=1;fontSize=32;" parent="KC_nsmwJ1KpU8SBtWkq8-2" vertex="1">
          <mxGeometry x="1180" y="380" width="310" height="310" as="geometry" />
        </mxCell>
        <mxCell id="761dnnyQ54j-Cl0NHfQN-155" value="19" style="rounded=0;whiteSpace=wrap;html=1;fontSize=32;" parent="KC_nsmwJ1KpU8SBtWkq8-2" vertex="1">
          <mxGeometry x="990" y="450" width="190" height="190" as="geometry" />
        </mxCell>
        <mxCell id="761dnnyQ54j-Cl0NHfQN-156" value="66" style="rounded=0;whiteSpace=wrap;html=1;fontSize=32;" parent="KC_nsmwJ1KpU8SBtWkq8-2" vertex="1">
          <mxGeometry width="660" height="660" as="geometry" />
        </mxCell>
        <mxCell id="761dnnyQ54j-Cl0NHfQN-157" value="45" style="rounded=0;whiteSpace=wrap;html=1;fontSize=32;" parent="KC_nsmwJ1KpU8SBtWkq8-2" vertex="1">
          <mxGeometry x="660" width="450" height="450" as="geometry" />
        </mxCell>
        <mxCell id="761dnnyQ54j-Cl0NHfQN-158" value="7" style="rounded=0;whiteSpace=wrap;html=1;fontSize=32;" parent="KC_nsmwJ1KpU8SBtWkq8-2" vertex="1">
          <mxGeometry x="1110" y="380" width="70" height="70" as="geometry" />
        </mxCell>
        <mxCell id="761dnnyQ54j-Cl0NHfQN-159" value="38" style="rounded=0;whiteSpace=wrap;html=1;fontSize=32;" parent="KC_nsmwJ1KpU8SBtWkq8-2" vertex="1">
          <mxGeometry x="1110" width="380" height="380" as="geometry" />
        </mxCell>
        <mxCell id="KC_nsmwJ1KpU8SBtWkq8-3" value="" style="group;flipV=1;" vertex="1" connectable="0" parent="1">
          <mxGeometry x="16985" y="-1490" width="1490" height="1440" as="geometry" />
        </mxCell>
        <mxCell id="761dnnyQ54j-Cl0NHfQN-226" value="61" style="rounded=0;whiteSpace=wrap;html=1;fontSize=32;" parent="KC_nsmwJ1KpU8SBtWkq8-3" vertex="1">
          <mxGeometry y="830" width="610" height="610" as="geometry" />
        </mxCell>
        <mxCell id="761dnnyQ54j-Cl0NHfQN-227" value="22" style="rounded=0;whiteSpace=wrap;html=1;fontSize=32;" parent="KC_nsmwJ1KpU8SBtWkq8-3" vertex="1">
          <mxGeometry x="610" y="1220" width="220" height="220" as="geometry" />
        </mxCell>
        <mxCell id="761dnnyQ54j-Cl0NHfQN-228" value="12" style="rounded=0;whiteSpace=wrap;html=1;fontSize=32;" parent="KC_nsmwJ1KpU8SBtWkq8-3" vertex="1">
          <mxGeometry x="830" y="1320" width="120" height="120" as="geometry" />
        </mxCell>
        <mxCell id="761dnnyQ54j-Cl0NHfQN-229" value="9" style="rounded=0;whiteSpace=wrap;html=1;fontSize=32;" parent="KC_nsmwJ1KpU8SBtWkq8-3" vertex="1">
          <mxGeometry x="950" y="1350" width="90" height="90" as="geometry" />
        </mxCell>
        <mxCell id="761dnnyQ54j-Cl0NHfQN-230" value="16" style="rounded=0;whiteSpace=wrap;html=1;fontSize=32;" parent="KC_nsmwJ1KpU8SBtWkq8-3" vertex="1">
          <mxGeometry x="1040" y="1280" width="160" height="160" as="geometry" />
        </mxCell>
        <mxCell id="761dnnyQ54j-Cl0NHfQN-231" value="5" style="rounded=0;whiteSpace=wrap;html=1;fontSize=32;" parent="KC_nsmwJ1KpU8SBtWkq8-3" vertex="1">
          <mxGeometry x="950" y="1300" width="50" height="50" as="geometry" />
        </mxCell>
        <mxCell id="761dnnyQ54j-Cl0NHfQN-232" value="4" style="rounded=0;whiteSpace=wrap;html=1;fontSize=32;" parent="KC_nsmwJ1KpU8SBtWkq8-3" vertex="1">
          <mxGeometry x="1000" y="1310" width="40" height="40" as="geometry" />
        </mxCell>
        <mxCell id="761dnnyQ54j-Cl0NHfQN-233" value="1" style="rounded=0;whiteSpace=wrap;html=1;fontSize=32;" parent="KC_nsmwJ1KpU8SBtWkq8-3" vertex="1">
          <mxGeometry x="1000" y="1300" width="10" height="10" as="geometry" />
        </mxCell>
        <mxCell id="761dnnyQ54j-Cl0NHfQN-234" value="3" style="rounded=0;whiteSpace=wrap;html=1;fontSize=32;" parent="KC_nsmwJ1KpU8SBtWkq8-3" vertex="1">
          <mxGeometry x="1010" y="1280" width="30" height="30" as="geometry" />
        </mxCell>
        <mxCell id="761dnnyQ54j-Cl0NHfQN-235" value="10" style="rounded=0;whiteSpace=wrap;html=1;fontSize=32;" parent="KC_nsmwJ1KpU8SBtWkq8-3" vertex="1">
          <mxGeometry x="830" y="1220" width="100" height="100" as="geometry" />
        </mxCell>
        <mxCell id="761dnnyQ54j-Cl0NHfQN-236" value="2" style="rounded=0;whiteSpace=wrap;html=1;fontSize=32;" parent="KC_nsmwJ1KpU8SBtWkq8-3" vertex="1">
          <mxGeometry x="930" y="1300" width="20" height="20" as="geometry" />
        </mxCell>
        <mxCell id="761dnnyQ54j-Cl0NHfQN-237" value="8" style="rounded=0;whiteSpace=wrap;html=1;fontSize=32;" parent="KC_nsmwJ1KpU8SBtWkq8-3" vertex="1">
          <mxGeometry x="930" y="1220" width="80" height="80" as="geometry" />
        </mxCell>
        <mxCell id="761dnnyQ54j-Cl0NHfQN-238" value="29" style="rounded=0;whiteSpace=wrap;html=1;fontSize=32;" parent="KC_nsmwJ1KpU8SBtWkq8-3" vertex="1">
          <mxGeometry x="1200" y="1150" width="290" height="290" as="geometry" />
        </mxCell>
        <mxCell id="761dnnyQ54j-Cl0NHfQN-239" value="6" style="rounded=0;whiteSpace=wrap;html=1;fontSize=32;" parent="KC_nsmwJ1KpU8SBtWkq8-3" vertex="1">
          <mxGeometry x="1010" y="1220" width="60" height="60" as="geometry" />
        </mxCell>
        <mxCell id="761dnnyQ54j-Cl0NHfQN-240" value="13" style="rounded=0;whiteSpace=wrap;html=1;fontSize=32;" parent="KC_nsmwJ1KpU8SBtWkq8-3" vertex="1">
          <mxGeometry x="1070" y="1150" width="130" height="130" as="geometry" />
        </mxCell>
        <mxCell id="761dnnyQ54j-Cl0NHfQN-241" value="39" style="rounded=0;whiteSpace=wrap;html=1;fontSize=32;" parent="KC_nsmwJ1KpU8SBtWkq8-3" vertex="1">
          <mxGeometry x="610" y="830" width="390" height="390" as="geometry" />
        </mxCell>
        <mxCell id="761dnnyQ54j-Cl0NHfQN-242" value="7" style="rounded=0;whiteSpace=wrap;html=1;fontSize=32;" parent="KC_nsmwJ1KpU8SBtWkq8-3" vertex="1">
          <mxGeometry x="1000" y="1150" width="70" height="70" as="geometry" />
        </mxCell>
        <mxCell id="761dnnyQ54j-Cl0NHfQN-243" value="49" style="rounded=0;whiteSpace=wrap;html=1;fontSize=32;" parent="KC_nsmwJ1KpU8SBtWkq8-3" vertex="1">
          <mxGeometry x="1000" y="660" width="490" height="490" as="geometry" />
        </mxCell>
        <mxCell id="761dnnyQ54j-Cl0NHfQN-244" value="83" style="rounded=0;whiteSpace=wrap;html=1;fontSize=32;" parent="KC_nsmwJ1KpU8SBtWkq8-3" vertex="1">
          <mxGeometry width="830" height="830" as="geometry" />
        </mxCell>
        <mxCell id="761dnnyQ54j-Cl0NHfQN-245" value="17" style="rounded=0;whiteSpace=wrap;html=1;fontSize=32;" parent="KC_nsmwJ1KpU8SBtWkq8-3" vertex="1">
          <mxGeometry x="830" y="660" width="170" height="170" as="geometry" />
        </mxCell>
        <mxCell id="761dnnyQ54j-Cl0NHfQN-246" value="66" style="rounded=0;whiteSpace=wrap;html=1;fontSize=32;" parent="KC_nsmwJ1KpU8SBtWkq8-3" vertex="1">
          <mxGeometry x="830" width="660" height="660" as="geometry" />
        </mxCell>
        <mxCell id="KC_nsmwJ1KpU8SBtWkq8-4" value="" style="group;flipV=1;" vertex="1" connectable="0" parent="1">
          <mxGeometry x="16990" y="50" width="1490" height="1440" as="geometry" />
        </mxCell>
        <mxCell id="761dnnyQ54j-Cl0NHfQN-248" value="61" style="rounded=0;whiteSpace=wrap;html=1;fontSize=32;" parent="KC_nsmwJ1KpU8SBtWkq8-4" vertex="1">
          <mxGeometry y="830" width="610" height="610" as="geometry" />
        </mxCell>
        <mxCell id="761dnnyQ54j-Cl0NHfQN-249" value="39" style="rounded=0;whiteSpace=wrap;html=1;fontSize=32;" parent="KC_nsmwJ1KpU8SBtWkq8-4" vertex="1">
          <mxGeometry x="610" y="1050" width="390" height="390" as="geometry" />
        </mxCell>
        <mxCell id="761dnnyQ54j-Cl0NHfQN-250" value="49" style="rounded=0;whiteSpace=wrap;html=1;fontSize=32;" parent="KC_nsmwJ1KpU8SBtWkq8-4" vertex="1">
          <mxGeometry x="1000" y="950" width="490" height="490" as="geometry" />
        </mxCell>
        <mxCell id="761dnnyQ54j-Cl0NHfQN-251" value="22" style="rounded=0;whiteSpace=wrap;html=1;fontSize=32;" parent="KC_nsmwJ1KpU8SBtWkq8-4" vertex="1">
          <mxGeometry x="610" y="830" width="220" height="220" as="geometry" />
        </mxCell>
        <mxCell id="761dnnyQ54j-Cl0NHfQN-252" value="17" style="rounded=0;whiteSpace=wrap;html=1;fontSize=32;" parent="KC_nsmwJ1KpU8SBtWkq8-4" vertex="1">
          <mxGeometry x="830" y="880" width="170" height="170" as="geometry" />
        </mxCell>
        <mxCell id="761dnnyQ54j-Cl0NHfQN-253" value="7" style="rounded=0;whiteSpace=wrap;html=1;fontSize=32;" parent="KC_nsmwJ1KpU8SBtWkq8-4" vertex="1">
          <mxGeometry x="1000" y="880" width="70" height="70" as="geometry" />
        </mxCell>
        <mxCell id="761dnnyQ54j-Cl0NHfQN-254" value="13" style="rounded=0;whiteSpace=wrap;html=1;fontSize=32;" parent="KC_nsmwJ1KpU8SBtWkq8-4" vertex="1">
          <mxGeometry x="1070" y="820" width="130" height="130" as="geometry" />
        </mxCell>
        <mxCell id="761dnnyQ54j-Cl0NHfQN-255" value="10" style="rounded=0;whiteSpace=wrap;html=1;fontSize=32;" parent="KC_nsmwJ1KpU8SBtWkq8-4" vertex="1">
          <mxGeometry x="830" y="780" width="100" height="100" as="geometry" />
        </mxCell>
        <mxCell id="761dnnyQ54j-Cl0NHfQN-256" value="8" style="rounded=0;whiteSpace=wrap;html=1;fontSize=32;" parent="KC_nsmwJ1KpU8SBtWkq8-4" vertex="1">
          <mxGeometry x="930" y="800" width="80" height="80" as="geometry" />
        </mxCell>
        <mxCell id="761dnnyQ54j-Cl0NHfQN-257" value="6" style="rounded=0;whiteSpace=wrap;html=1;fontSize=32;" parent="KC_nsmwJ1KpU8SBtWkq8-4" vertex="1">
          <mxGeometry x="1010" y="820" width="60" height="60" as="geometry" />
        </mxCell>
        <mxCell id="761dnnyQ54j-Cl0NHfQN-258" value="29" style="rounded=0;whiteSpace=wrap;html=1;fontSize=32;" parent="KC_nsmwJ1KpU8SBtWkq8-4" vertex="1">
          <mxGeometry x="1200" y="660" width="290" height="290" as="geometry" />
        </mxCell>
        <mxCell id="761dnnyQ54j-Cl0NHfQN-259" value="3" style="rounded=0;whiteSpace=wrap;html=1;fontSize=32;" parent="KC_nsmwJ1KpU8SBtWkq8-4" vertex="1">
          <mxGeometry x="1010" y="790" width="30" height="30" as="geometry" />
        </mxCell>
        <mxCell id="761dnnyQ54j-Cl0NHfQN-260" value="2" style="rounded=0;whiteSpace=wrap;html=1;fontSize=32;" parent="KC_nsmwJ1KpU8SBtWkq8-4" vertex="1">
          <mxGeometry x="930" y="780" width="20" height="20" as="geometry" />
        </mxCell>
        <mxCell id="761dnnyQ54j-Cl0NHfQN-261" value="5" style="rounded=0;whiteSpace=wrap;html=1;fontSize=32;" parent="KC_nsmwJ1KpU8SBtWkq8-4" vertex="1">
          <mxGeometry x="950" y="750" width="50" height="50" as="geometry" />
        </mxCell>
        <mxCell id="761dnnyQ54j-Cl0NHfQN-262" value="1" style="rounded=0;whiteSpace=wrap;html=1;fontSize=32;" parent="KC_nsmwJ1KpU8SBtWkq8-4" vertex="1">
          <mxGeometry x="1000" y="790" width="10" height="10" as="geometry" />
        </mxCell>
        <mxCell id="761dnnyQ54j-Cl0NHfQN-263" value="16" style="rounded=0;whiteSpace=wrap;html=1;fontSize=32;" parent="KC_nsmwJ1KpU8SBtWkq8-4" vertex="1">
          <mxGeometry x="1040" y="660" width="160" height="160" as="geometry" />
        </mxCell>
        <mxCell id="761dnnyQ54j-Cl0NHfQN-264" value="4" style="rounded=0;whiteSpace=wrap;html=1;fontSize=32;" parent="KC_nsmwJ1KpU8SBtWkq8-4" vertex="1">
          <mxGeometry x="1000" y="750" width="40" height="40" as="geometry" />
        </mxCell>
        <mxCell id="761dnnyQ54j-Cl0NHfQN-265" value="83" style="rounded=0;whiteSpace=wrap;html=1;fontSize=32;" parent="KC_nsmwJ1KpU8SBtWkq8-4" vertex="1">
          <mxGeometry width="830" height="830" as="geometry" />
        </mxCell>
        <mxCell id="761dnnyQ54j-Cl0NHfQN-266" value="12" style="rounded=0;whiteSpace=wrap;html=1;fontSize=32;" parent="KC_nsmwJ1KpU8SBtWkq8-4" vertex="1">
          <mxGeometry x="830" y="660" width="120" height="120" as="geometry" />
        </mxCell>
        <mxCell id="761dnnyQ54j-Cl0NHfQN-267" value="9" style="rounded=0;whiteSpace=wrap;html=1;fontSize=32;" parent="KC_nsmwJ1KpU8SBtWkq8-4" vertex="1">
          <mxGeometry x="950" y="660" width="90" height="90" as="geometry" />
        </mxCell>
        <mxCell id="761dnnyQ54j-Cl0NHfQN-268" value="66" style="rounded=0;whiteSpace=wrap;html=1;fontSize=32;" parent="KC_nsmwJ1KpU8SBtWkq8-4" vertex="1">
          <mxGeometry x="830" width="660" height="660" as="geometry" />
        </mxCell>
        <mxCell id="KC_nsmwJ1KpU8SBtWkq8-5" value="" style="group;flipV=1;" vertex="1" connectable="0" parent="1">
          <mxGeometry x="16980" y="1570" width="1490" height="1020" as="geometry" />
        </mxCell>
        <mxCell id="761dnnyQ54j-Cl0NHfQN-400" value="47" style="rounded=0;whiteSpace=wrap;html=1;fontSize=32;" parent="KC_nsmwJ1KpU8SBtWkq8-5" vertex="1">
          <mxGeometry y="550" width="470" height="470" as="geometry" />
        </mxCell>
        <mxCell id="761dnnyQ54j-Cl0NHfQN-401" value="36" style="rounded=0;whiteSpace=wrap;html=1;fontSize=32;" parent="KC_nsmwJ1KpU8SBtWkq8-5" vertex="1">
          <mxGeometry x="470" y="660" width="360" height="360" as="geometry" />
        </mxCell>
        <mxCell id="761dnnyQ54j-Cl0NHfQN-402" value="32" style="rounded=0;whiteSpace=wrap;html=1;fontSize=32;" parent="KC_nsmwJ1KpU8SBtWkq8-5" vertex="1">
          <mxGeometry x="830" y="700" width="320" height="320" as="geometry" />
        </mxCell>
        <mxCell id="761dnnyQ54j-Cl0NHfQN-403" value="34" style="rounded=0;whiteSpace=wrap;html=1;fontSize=32;" parent="KC_nsmwJ1KpU8SBtWkq8-5" vertex="1">
          <mxGeometry x="1150" y="680" width="340" height="340" as="geometry" />
        </mxCell>
        <mxCell id="761dnnyQ54j-Cl0NHfQN-404" value="20" style="rounded=0;whiteSpace=wrap;html=1;fontSize=32;" parent="KC_nsmwJ1KpU8SBtWkq8-5" vertex="1">
          <mxGeometry x="830" y="500" width="200" height="200" as="geometry" />
        </mxCell>
        <mxCell id="761dnnyQ54j-Cl0NHfQN-405" value="12" style="rounded=0;whiteSpace=wrap;html=1;fontSize=32;" parent="KC_nsmwJ1KpU8SBtWkq8-5" vertex="1">
          <mxGeometry x="1030" y="580" width="120" height="120" as="geometry" />
        </mxCell>
        <mxCell id="761dnnyQ54j-Cl0NHfQN-406" value="10" style="rounded=0;whiteSpace=wrap;html=1;fontSize=32;" parent="KC_nsmwJ1KpU8SBtWkq8-5" vertex="1">
          <mxGeometry x="1150" y="580" width="100" height="100" as="geometry" />
        </mxCell>
        <mxCell id="761dnnyQ54j-Cl0NHfQN-407" value="24" style="rounded=0;whiteSpace=wrap;html=1;fontSize=32;" parent="KC_nsmwJ1KpU8SBtWkq8-5" vertex="1">
          <mxGeometry x="1250" y="440" width="240" height="240" as="geometry" />
        </mxCell>
        <mxCell id="761dnnyQ54j-Cl0NHfQN-408" value="8" style="rounded=0;whiteSpace=wrap;html=1;fontSize=32;" parent="KC_nsmwJ1KpU8SBtWkq8-5" vertex="1">
          <mxGeometry x="1030" y="500" width="80" height="80" as="geometry" />
        </mxCell>
        <mxCell id="761dnnyQ54j-Cl0NHfQN-409" value="14" style="rounded=0;whiteSpace=wrap;html=1;fontSize=32;" parent="KC_nsmwJ1KpU8SBtWkq8-5" vertex="1">
          <mxGeometry x="1110" y="440" width="140" height="140" as="geometry" />
        </mxCell>
        <mxCell id="761dnnyQ54j-Cl0NHfQN-410" value="11" style="rounded=0;whiteSpace=wrap;html=1;fontSize=32;" parent="KC_nsmwJ1KpU8SBtWkq8-5" vertex="1">
          <mxGeometry x="470" y="550" width="110" height="110" as="geometry" />
        </mxCell>
        <mxCell id="761dnnyQ54j-Cl0NHfQN-411" value="9" style="rounded=0;whiteSpace=wrap;html=1;fontSize=32;" parent="KC_nsmwJ1KpU8SBtWkq8-5" vertex="1">
          <mxGeometry x="580" y="570" width="90" height="90" as="geometry" />
        </mxCell>
        <mxCell id="761dnnyQ54j-Cl0NHfQN-412" value="16" style="rounded=0;whiteSpace=wrap;html=1;fontSize=32;" parent="KC_nsmwJ1KpU8SBtWkq8-5" vertex="1">
          <mxGeometry x="670" y="500" width="160" height="160" as="geometry" />
        </mxCell>
        <mxCell id="761dnnyQ54j-Cl0NHfQN-413" value="2" style="rounded=0;whiteSpace=wrap;html=1;fontSize=32;" parent="KC_nsmwJ1KpU8SBtWkq8-5" vertex="1">
          <mxGeometry x="580" y="550" width="20" height="20" as="geometry" />
        </mxCell>
        <mxCell id="761dnnyQ54j-Cl0NHfQN-414" value="7" style="rounded=0;whiteSpace=wrap;html=1;fontSize=32;" parent="KC_nsmwJ1KpU8SBtWkq8-5" vertex="1">
          <mxGeometry x="600" y="500" width="70" height="70" as="geometry" />
        </mxCell>
        <mxCell id="761dnnyQ54j-Cl0NHfQN-415" value="55" style="rounded=0;whiteSpace=wrap;html=1;fontSize=32;" parent="KC_nsmwJ1KpU8SBtWkq8-5" vertex="1">
          <mxGeometry width="550" height="550" as="geometry" />
        </mxCell>
        <mxCell id="761dnnyQ54j-Cl0NHfQN-416" value="5" style="rounded=0;whiteSpace=wrap;html=1;fontSize=32;" parent="KC_nsmwJ1KpU8SBtWkq8-5" vertex="1">
          <mxGeometry x="550" y="500" width="50" height="50" as="geometry" />
        </mxCell>
        <mxCell id="761dnnyQ54j-Cl0NHfQN-417" value="50" style="rounded=0;whiteSpace=wrap;html=1;fontSize=32;" parent="KC_nsmwJ1KpU8SBtWkq8-5" vertex="1">
          <mxGeometry x="550" width="500" height="500" as="geometry" />
        </mxCell>
        <mxCell id="761dnnyQ54j-Cl0NHfQN-418" value="6" style="rounded=0;whiteSpace=wrap;html=1;fontSize=32;" parent="KC_nsmwJ1KpU8SBtWkq8-5" vertex="1">
          <mxGeometry x="1050" y="440" width="60" height="60" as="geometry" />
        </mxCell>
        <mxCell id="761dnnyQ54j-Cl0NHfQN-419" value="44" style="rounded=0;whiteSpace=wrap;html=1;fontSize=32;" parent="KC_nsmwJ1KpU8SBtWkq8-5" vertex="1">
          <mxGeometry x="1050" width="440" height="440" as="geometry" />
        </mxCell>
        <mxCell id="KC_nsmwJ1KpU8SBtWkq8-6" value="" style="group;flipV=1;" vertex="1" connectable="0" parent="1">
          <mxGeometry x="16980" y="2690" width="1490" height="1020" as="geometry" />
        </mxCell>
        <mxCell id="761dnnyQ54j-Cl0NHfQN-442" value="47" style="rounded=0;whiteSpace=wrap;html=1;fontSize=32;" parent="KC_nsmwJ1KpU8SBtWkq8-6" vertex="1">
          <mxGeometry y="550" width="470" height="470" as="geometry" />
        </mxCell>
        <mxCell id="761dnnyQ54j-Cl0NHfQN-443" value="25" style="rounded=0;whiteSpace=wrap;html=1;fontSize=32;" parent="KC_nsmwJ1KpU8SBtWkq8-6" vertex="1">
          <mxGeometry x="470" y="770" width="250" height="250" as="geometry" />
        </mxCell>
        <mxCell id="761dnnyQ54j-Cl0NHfQN-444" value="28" style="rounded=0;whiteSpace=wrap;html=1;fontSize=32;" parent="KC_nsmwJ1KpU8SBtWkq8-6" vertex="1">
          <mxGeometry x="720" y="740" width="280" height="280" as="geometry" />
        </mxCell>
        <mxCell id="761dnnyQ54j-Cl0NHfQN-445" value="22" style="rounded=0;whiteSpace=wrap;html=1;fontSize=32;" parent="KC_nsmwJ1KpU8SBtWkq8-6" vertex="1">
          <mxGeometry x="470" y="550" width="220" height="220" as="geometry" />
        </mxCell>
        <mxCell id="761dnnyQ54j-Cl0NHfQN-446" value="3" style="rounded=0;whiteSpace=wrap;html=1;fontSize=32;" parent="KC_nsmwJ1KpU8SBtWkq8-6" vertex="1">
          <mxGeometry x="690" y="740" width="30" height="30" as="geometry" />
        </mxCell>
        <mxCell id="761dnnyQ54j-Cl0NHfQN-447" value="49" style="rounded=0;whiteSpace=wrap;html=1;fontSize=32;" parent="KC_nsmwJ1KpU8SBtWkq8-6" vertex="1">
          <mxGeometry x="1000" y="530" width="490" height="490" as="geometry" />
        </mxCell>
        <mxCell id="761dnnyQ54j-Cl0NHfQN-448" value="16" style="rounded=0;whiteSpace=wrap;html=1;fontSize=32;" parent="KC_nsmwJ1KpU8SBtWkq8-6" vertex="1">
          <mxGeometry x="690" y="580" width="160" height="160" as="geometry" />
        </mxCell>
        <mxCell id="761dnnyQ54j-Cl0NHfQN-449" value="15" style="rounded=0;whiteSpace=wrap;html=1;fontSize=32;" parent="KC_nsmwJ1KpU8SBtWkq8-6" vertex="1">
          <mxGeometry x="850" y="590" width="150" height="150" as="geometry" />
        </mxCell>
        <mxCell id="761dnnyQ54j-Cl0NHfQN-450" value="1" style="rounded=0;whiteSpace=wrap;html=1;fontSize=32;" parent="KC_nsmwJ1KpU8SBtWkq8-6" vertex="1">
          <mxGeometry x="850" y="580" width="10" height="10" as="geometry" />
        </mxCell>
        <mxCell id="761dnnyQ54j-Cl0NHfQN-451" value="8" style="rounded=0;whiteSpace=wrap;html=1;fontSize=32;" parent="KC_nsmwJ1KpU8SBtWkq8-6" vertex="1">
          <mxGeometry x="860" y="510" width="80" height="80" as="geometry" />
        </mxCell>
        <mxCell id="761dnnyQ54j-Cl0NHfQN-452" value="6" style="rounded=0;whiteSpace=wrap;html=1;fontSize=32;" parent="KC_nsmwJ1KpU8SBtWkq8-6" vertex="1">
          <mxGeometry x="940" y="530" width="60" height="60" as="geometry" />
        </mxCell>
        <mxCell id="761dnnyQ54j-Cl0NHfQN-453" value="17" style="rounded=0;whiteSpace=wrap;html=1;fontSize=32;" parent="KC_nsmwJ1KpU8SBtWkq8-6" vertex="1">
          <mxGeometry x="690" y="410" width="170" height="170" as="geometry" />
        </mxCell>
        <mxCell id="761dnnyQ54j-Cl0NHfQN-454" value="2" style="rounded=0;whiteSpace=wrap;html=1;fontSize=32;" parent="KC_nsmwJ1KpU8SBtWkq8-6" vertex="1">
          <mxGeometry x="940" y="510" width="20" height="20" as="geometry" />
        </mxCell>
        <mxCell id="761dnnyQ54j-Cl0NHfQN-455" value="53" style="rounded=0;whiteSpace=wrap;html=1;fontSize=32;" parent="KC_nsmwJ1KpU8SBtWkq8-6" vertex="1">
          <mxGeometry x="960" width="530" height="530" as="geometry" />
        </mxCell>
        <mxCell id="761dnnyQ54j-Cl0NHfQN-456" value="10" style="rounded=0;whiteSpace=wrap;html=1;fontSize=32;" parent="KC_nsmwJ1KpU8SBtWkq8-6" vertex="1">
          <mxGeometry x="860" y="410" width="100" height="100" as="geometry" />
        </mxCell>
        <mxCell id="761dnnyQ54j-Cl0NHfQN-457" value="55" style="rounded=0;whiteSpace=wrap;html=1;fontSize=32;" parent="KC_nsmwJ1KpU8SBtWkq8-6" vertex="1">
          <mxGeometry width="550" height="550" as="geometry" />
        </mxCell>
        <mxCell id="761dnnyQ54j-Cl0NHfQN-458" value="14" style="rounded=0;whiteSpace=wrap;html=1;fontSize=32;" parent="KC_nsmwJ1KpU8SBtWkq8-6" vertex="1">
          <mxGeometry x="550" y="410" width="140" height="140" as="geometry" />
        </mxCell>
        <mxCell id="761dnnyQ54j-Cl0NHfQN-459" value="41" style="rounded=0;whiteSpace=wrap;html=1;fontSize=32;" parent="KC_nsmwJ1KpU8SBtWkq8-6" vertex="1">
          <mxGeometry x="550" width="410" height="410" as="geometry" />
        </mxCell>
        <mxCell id="KC_nsmwJ1KpU8SBtWkq8-7" value="" style="group;flipV=1;" vertex="1" connectable="0" parent="1">
          <mxGeometry x="16980" y="3820" width="1490" height="1360" as="geometry" />
        </mxCell>
        <mxCell id="761dnnyQ54j-Cl0NHfQN-535" value="53" style="rounded=0;whiteSpace=wrap;html=1;fontSize=32;" parent="KC_nsmwJ1KpU8SBtWkq8-7" vertex="1">
          <mxGeometry y="830" width="530" height="530" as="geometry" />
        </mxCell>
        <mxCell id="761dnnyQ54j-Cl0NHfQN-536" value="23" style="rounded=0;whiteSpace=wrap;html=1;fontSize=32;" parent="KC_nsmwJ1KpU8SBtWkq8-7" vertex="1">
          <mxGeometry x="530" y="1130" width="230" height="230" as="geometry" />
        </mxCell>
        <mxCell id="761dnnyQ54j-Cl0NHfQN-537" value="16" style="rounded=0;whiteSpace=wrap;html=1;fontSize=32;" parent="KC_nsmwJ1KpU8SBtWkq8-7" vertex="1">
          <mxGeometry x="760" y="1200" width="160" height="160" as="geometry" />
        </mxCell>
        <mxCell id="761dnnyQ54j-Cl0NHfQN-538" value="21" style="rounded=0;whiteSpace=wrap;html=1;fontSize=32;" parent="KC_nsmwJ1KpU8SBtWkq8-7" vertex="1">
          <mxGeometry x="920" y="1150" width="210" height="210" as="geometry" />
        </mxCell>
        <mxCell id="761dnnyQ54j-Cl0NHfQN-539" value="7" style="rounded=0;whiteSpace=wrap;html=1;fontSize=32;" parent="KC_nsmwJ1KpU8SBtWkq8-7" vertex="1">
          <mxGeometry x="760" y="1130" width="70" height="70" as="geometry" />
        </mxCell>
        <mxCell id="761dnnyQ54j-Cl0NHfQN-540" value="9" style="rounded=0;whiteSpace=wrap;html=1;fontSize=32;" parent="KC_nsmwJ1KpU8SBtWkq8-7" vertex="1">
          <mxGeometry x="830" y="1110" width="90" height="90" as="geometry" />
        </mxCell>
        <mxCell id="761dnnyQ54j-Cl0NHfQN-541" value="30" style="rounded=0;whiteSpace=wrap;html=1;fontSize=32;" parent="KC_nsmwJ1KpU8SBtWkq8-7" vertex="1">
          <mxGeometry x="530" y="830" width="300" height="300" as="geometry" />
        </mxCell>
        <mxCell id="761dnnyQ54j-Cl0NHfQN-542" value="36" style="rounded=0;whiteSpace=wrap;html=1;fontSize=32;" parent="KC_nsmwJ1KpU8SBtWkq8-7" vertex="1">
          <mxGeometry x="1130" y="1000" width="360" height="360" as="geometry" />
        </mxCell>
        <mxCell id="761dnnyQ54j-Cl0NHfQN-543" value="4" style="rounded=0;whiteSpace=wrap;html=1;fontSize=32;" parent="KC_nsmwJ1KpU8SBtWkq8-7" vertex="1">
          <mxGeometry x="920" y="1110" width="40" height="40" as="geometry" />
        </mxCell>
        <mxCell id="761dnnyQ54j-Cl0NHfQN-544" value="17" style="rounded=0;whiteSpace=wrap;html=1;fontSize=32;" parent="KC_nsmwJ1KpU8SBtWkq8-7" vertex="1">
          <mxGeometry x="960" y="980" width="170" height="170" as="geometry" />
        </mxCell>
        <mxCell id="761dnnyQ54j-Cl0NHfQN-545" value="13" style="rounded=0;whiteSpace=wrap;html=1;fontSize=32;" parent="KC_nsmwJ1KpU8SBtWkq8-7" vertex="1">
          <mxGeometry x="830" y="980" width="130" height="130" as="geometry" />
        </mxCell>
        <mxCell id="761dnnyQ54j-Cl0NHfQN-546" value="2" style="rounded=0;whiteSpace=wrap;html=1;fontSize=32;" parent="KC_nsmwJ1KpU8SBtWkq8-7" vertex="1">
          <mxGeometry x="1130" y="980" width="20" height="20" as="geometry" />
        </mxCell>
        <mxCell id="761dnnyQ54j-Cl0NHfQN-547" value="34" style="rounded=0;whiteSpace=wrap;html=1;fontSize=32;" parent="KC_nsmwJ1KpU8SBtWkq8-7" vertex="1">
          <mxGeometry x="1150" y="660" width="340" height="340" as="geometry" />
        </mxCell>
        <mxCell id="761dnnyQ54j-Cl0NHfQN-548" value="32" style="rounded=0;whiteSpace=wrap;html=1;fontSize=32;" parent="KC_nsmwJ1KpU8SBtWkq8-7" vertex="1">
          <mxGeometry x="830" y="660" width="320" height="320" as="geometry" />
        </mxCell>
        <mxCell id="761dnnyQ54j-Cl0NHfQN-549" value="83" style="rounded=0;whiteSpace=wrap;html=1;fontSize=32;" parent="KC_nsmwJ1KpU8SBtWkq8-7" vertex="1">
          <mxGeometry width="830" height="830" as="geometry" />
        </mxCell>
        <mxCell id="761dnnyQ54j-Cl0NHfQN-550" value="66" style="rounded=0;whiteSpace=wrap;html=1;fontSize=32;" parent="KC_nsmwJ1KpU8SBtWkq8-7" vertex="1">
          <mxGeometry x="830" width="660" height="660" as="geometry" />
        </mxCell>
      </root>
    </mxGraphModel>
  </diagram>
</mxfile>
